<?xml version="1.0" encoding="UTF-8"?>
<svg id="Capa_2" data-name="Capa 2" xmlns="http://www.w3.org/2000/svg" viewBox="0 0 1333.86 404.37">
  <defs>
    <style>
      .cls-1 {
        fill: #f2c8a2;
      }

      .cls-2 {
        fill: #3e191c;
      }

      .cls-3 {
        fill: #eaa973;
      }

      .cls-4 {
        fill: #f98869;
      }

      .cls-5 {
        fill: #231f20;
      }

      .cls-6 {
        fill: #efe8dc;
      }
    </style>
  </defs>
  <g id="cocepto_y_construct" data-name="cocepto y construct">
    <g>
      <g id="cedito">
        <g id="colores">
          <path class="cls-6" d="m156.15,301.54c.33-.16.65-.33.97-.51.67-.38,1.32-.81,1.94-1.27.07-.05.21-.16.25-.2.13-.11.27-.22.4-.34.3-.26.6-.53.89-.8.64-.6,1.24-1.24,1.82-1.9,1.13-1.3,2.08-2.66,3.03-4.21,4.2-6.88,6.42-14.91,7.53-22.85,1.28-9.08,1.07-18.54-.7-27.54-1.47-7.47-3.98-14.97-8.49-21.19-1.59-2.19-3.81-4.44-5.97-5.8-.59-.37-1.19-.69-1.81-1-.1-.05-.21-.1-.31-.14-.06-.02-.15-.06-.18-.07-.29-.11-.59-.21-.89-.31-.62-.19-1.25-.34-1.89-.45-.08,0-.54-.06-.63-.07-.31-.02-.62-.03-.93-.03-1.69.01-3.61.47-5.05,1.17-2.11,1.03-3.41,2.06-5.02,3.7-7.13,7.23-10.35,18.41-11.75,28.37-1.57,11.24-.95,23.07,2.3,34.01-.35-1.64-.64-3.3-.86-4.97-1.37-10.33-.49-21.38,3.61-31.04,2.74-6.45,7.85-13.56,15.59-13.66,11.27.21,16.26,13.35,18.07,22.59.16.84.06,1.83-.64,2.43-3.19,2.73-6.42,5.48-9.47,8.4,1.39.58,2.79,1.15,4.2,1.71,1.93.77,3.86,1.53,5.79,2.27.96.37,1.95,1.25,1.84,2.41-.85,8.68-2.53,18.5-8.05,25.53-1.84,2.35-4.34,4.12-6.92,5.6-.43.25-.88.49-1.34.71.02.1.05.19.07.29.64-.15,1.27-.34,1.89-.57.62-.23.12-.01.72-.31Z"/>
          <path class="cls-2" d="m198.54,334.38c-6.33-4.68-11.1-11.4-13.27-18.98-11.14.11-22.37-2.33-32.33-7.09,1.94,9.23,6.22,17.97,11.5,25.72,2.95,4.32,6.34,8.32,10.19,11.8,1.66-3.14,4.38-5.62,7.61-7.29,4.89-2.53,10.59-3.97,16.3-4.15Z"/>
          <path class="cls-2" d="m241.29,330.49c-.11.17-.25.34-.42.49-4.11,3.81-9.06,6.6-14.44,8.16-3.08.89-6.26,1.35-9.44,1.4,4.17,3.44,7.28,8.02,8.68,13.29,2.68-1.22,5.26-2.64,7.65-4.26,6-4.05,10.7-9.69,13.12-16.46-.64-.26-1.27-.56-1.87-.85-1.11-.54-2.21-1.14-3.28-1.77Z"/>
          <path class="cls-4" d="m194.75,339.51c-5.86.79-13.35,2.95-15.75,8.84,1.56,1.14,3.19,2.21,4.91,3.15,7.94,4.37,17.08,6.49,26.13,5.86,3.81-.26,7.64-1.07,11.33-2.32-.72-3.31-2.52-6.38-4.84-8.8-5.61-5.87-13.9-7.8-21.78-6.74Z"/>
          <path class="cls-6" d="m212.31,335.25v-15.61c0-3.22,5-3.22,5,0v15.99c7.05-.07,14.01-2.63,19.27-7.38-4.5-3.23-8.82-6.75-12.83-10.56-3.08-2.91-5.95-6.03-8.53-9.4-3.96,2.35-8.25,4.16-12.67,5.43-4,1.15-8.14,1.88-12.32,2.23,1.11,3.36,2.82,6.51,5.1,9.23,4.33,5.18,10.33,8.9,16.98,10.06Z"/>
          <path class="cls-6" d="m244.75,229.54c6.27-.7,11.3,3.88,14.39,8.83,2.53,4.04,3.9,8.64,4.82,13.29.17.83.06,1.84-.64,2.43-3.17,2.67-6.38,5.34-9.42,8.18,1.38.56,2.76,1.11,4.14,1.66,1.93.75,3.86,1.5,5.79,2.23.96.36,1.95,1.26,1.84,2.41-.23,2.26-.56,4.52-.97,6.76,2.47.16,4.93.36,7.39.6,4.07-11.89,4.56-25.2,1.75-37.4-1.1-4.8-2.72-9.49-5.14-13.79-1.03-1.83-2.19-3.6-3.48-5.13-1.18-1.39-2.74-2.92-3.97-3.8-.77-.56-1.58-1.06-2.43-1.49-.85-.44-.97-.5-1.94-.81-1.83-.59-2.75-.72-4.66-.62-1.02.05-1.13.07-2.24.35-.4.1-.79.22-1.18.35-.15.05-.82.32-.84.32-1.59.71-3.16,1.74-4.26,2.68-6.67,5.71-10.11,14.65-11.88,23.17.46-.81.94-1.61,1.47-2.38,2.73-3.95,6.53-7.31,11.46-7.86Z"/>
          <path class="cls-6" d="m128.87,141.63c1.14-.46,2.28-.92,3.42-1.38.34-.13.69-.15,1.03-.09,3.31-1.07,6.64-2.11,9.99-3.06,11.77-3.34,23.81-5.48,36.06-5.62,8.85-.11,17.69.63,26.49,1.77,4.88.4,9.75,1.05,14.55,2,.65.13,1.3.28,1.95.42,1.62-8.73,4.02-17.2,7.24-25.51.45-1.16,1.41-1.9,2.62-1.81,8.21-1.56,15.61-5.71,21.12-12.04,9.95-11.44,11.28-28.07,4.66-41.5-3-6.08-7.51-11.13-13.5-14.25-6.08-3.17-13.29-3.92-20.17-2.78-1.2.2-2.85-.32-3.08-1.75-1.15-7.35-4.25-14.22-9.35-19.68-6.92-7.4-16.68-11.53-26.71-11.18-9.98.35-19.56,5.4-25.62,13.54-.78,1.05-2.19,1.68-3.42.9-5.04-3.24-10.8-5.51-16.79-6.14-8.42-.88-16.95,1.14-23.92,5.99-6.94,4.82-11.41,12.28-12.76,20.57-.13.81-.98,1.56-1.75,1.75-8.02,1.96-15.31,6.55-20.38,13.1-8.51,10.99-10.02,26.7-3.55,39.03,6.24,11.91,18.87,19.58,32.31,19.64.42,0,.82.12,1.18.32,7.03-4.03,14.25-7.73,21.77-10.77,12.73-5.16,26.2-7.88,39.94-7.94,16.32-.07,32.56,3.01,48.44,6.46,3.15.68,1.81,5.5-1.33,4.82-9.34-2.03-18.74-3.9-28.23-5.06-13.5-1.66-27.21-1.84-40.42,1.14-13.32,3-25.71,8.84-37.5,15.6,4.43,8.01,7.84,16.6,11.47,24.99,1.42-.49,2.84-.97,4.27-1.45Zm.23-43.16c-4.45-7.82-11.09-13.96-17.63-20-2.37-2.19,1.18-5.72,3.54-3.54,6.85,6.33,13.76,12.83,18.41,21.02,1.59,2.8-2.73,5.32-4.32,2.52Zm23.8-7.44c-3.64-11.33-8.57-22.18-14.69-32.39-1.66-2.77,2.67-5.28,4.32-2.52,6.33,10.57,11.42,21.86,15.19,33.58.99,3.08-3.84,4.38-4.82,1.33Zm41.09-34.68c-5.24,10.59-9.51,21.61-12.8,32.95-.9,3.09-5.72,1.77-4.82-1.33,3.42-11.75,7.88-23.18,13.31-34.14,1.43-2.89,5.74-.35,4.32,2.52Zm27.73,16.42c-6.05,6.46-11.66,13.31-16.78,20.53-.78,1.11-2.17,1.63-3.42.9-1.09-.64-1.68-2.32-.9-3.42,5.36-7.57,11.22-14.78,17.56-21.55,2.21-2.35,5.73,1.19,3.54,3.54Z"/>
          <path class="cls-3" d="m279.37,286.44c-3.2-1.95-6.77-3.16-10.41-3.98-5.34-1.21-10.72-1.35-16.16-1.35h-11.84c-1.8-.01-3.6.07-5.39.24-7.09.68-15,2.71-20.6,7.35-.62.51-1.22,1.05-1.73,1.67-.22.26-.42.53-.61.82-.1.15-.2.37-.32.51.13.47.29.93.46,1.39,1.12,3.07,2.56,6.1,4.25,8.99,3.82,6.54,9.78,11.96,15.53,16.77,3.1,2.59,6.1,5.09,9.62,7.24,1.29.79,2.61,1.54,3.96,2.21.72.36,1.17.58,1.88.8.18.06.78.14.62.15.04,0,.09,0,.13,0,.15-.03.46-.07.55-.09.29-.07.57-.15.85-.25.56-.19,1.11-.49,1.77-.87,1.9-1.12,3.64-2.55,5.4-3.87,5.89-4.43,11.48-9.15,16.25-14.8,4.59-5.44,8.67-11.51,10.65-18.42-.31-.49-1.03-1.43-1.15-1.56-1.05-1.19-2.37-2.13-3.72-2.95Zm-37.38,24.08c-2.16,0-3.9-4-3.9-8.93s1.75-8.93,3.9-8.93,3.9,4,3.9,8.93-1.75,8.93-3.9,8.93Zm18,0c-2.16,0-3.9-4-3.9-8.93s1.75-8.93,3.9-8.93,3.9,4,3.9,8.93-1.75,8.93-3.9,8.93Z"/>
          <path class="cls-1" d="m315.91,275.84c-1.5-1.79-3.28-3.3-4.89-4.97-1.74-1.81-3.19-3.85-3.95-6.27-.78-2.47-.82-5.12-.96-7.68-.24-4.58-.69-9.16-1.38-13.7-2.81-18.55-8.86-37.35-20.32-52.43-.43-.57-.45-1.31-.22-1.97.14-.55.49-1.07,1.12-1.45,1.66-.99,3.31-2.01,4.92-3.08,11.76-7.78,21.97-17.99,28.38-30.65,3.14-6.2,5.24-12.88,6.42-19.72,1.08-6.27,1.2-12.65,1.01-19-.09-3-.26-6.39-.69-9.06-.11-.66-.23-1.31-.39-1.96-.07-.28-.14-.55-.23-.83-.02-.06-.09-.26-.14-.38-.06-.12-.16-.32-.17-.36-.12-.22-.24-.44-.37-.65-.2-.33-.42-.67-.66-.98-.54-.69-1.19-1.36-1.89-1.89-1.31-.98-2.82-1.55-4.46-1.55-.08,0-.34.02-.39.01-.13.02-.25.04-.38.07-.31.07-.61.15-.9.24-.72.23-1.01.37-1.68.71-3.07,1.58-5.73,3.86-8.31,6.13-2.54,2.24-4.97,4.65-7.71,6.64-3.22,2.34-7.02,3.55-10.96,3.83-7.76.55-15.38-2.27-23.17-1.18-6.58.92-11.82,5.98-16.01,10.94-3.94,4.66-7.32,9.94-9.93,15.49,11.27,4.27,21.75,10.52,30.49,18.95,2.32,2.24-1.22,5.77-3.54,3.54-3.44-3.32-7.15-6.31-11.13-8.94-9.3-6.14-19.7-10.27-30.5-12.79-8.78-1.5-17.59-2.85-26.47-3.67-12.21-1.13-24.65-1.07-36.52,1.08-9.97,1.8-19.69,4.74-29.29,7.98-3.21,1.3-6.4,2.61-9.56,4.02-6.9,3.09-13.64,6.6-19.77,11.05-6.25,4.54-11.7,10.14-16.21,16.4-.79,1.1-2.16,1.63-3.42.9-1.09-.64-1.69-2.32-.9-3.42,2.83-3.93,5.93-7.65,9.41-11.02,3.92-3.8,8.21-7.04,12.74-9.91-.02-.03-.05-.05-.07-.08-.72-1.1-1.48-2.16-2.26-3.21-.72-.95-1.75-2.23-2.7-3.36-1.15-1.37-2.33-2.7-3.55-4.01-2.56-2.76-5.24-5.4-8.07-7.87-2.65-2.32-5.42-4.49-8.42-6.35-2.64-1.64-4.91-2.84-7.88-3.46-.1-.02-.67-.11-.73-.13-.24-.02-.48-.05-.72-.06-.94-.04-1.89.01-2.83.09-2.05.16-4.07.59-6.06,1.1-3.81,1-7.5,2.44-11.33,3.36-3.87.94-7.88,1.25-11.77.25-3.62-.93-6.76-3.01-9.9-4.95-3.24-2.01-6.53-4.15-10.1-5.52-2.99-1.15-5.71-1.76-8.4.5-1.42,1.2-2.49,2.84-3.06,4.61-.1.31-.16.62-.24.93-.02.06-.03.1-.04.13,0,.04,0,.09,0,.2-.03.65-.07,1.29-.06,1.93.02,3.34.46,6.67.95,9.9,1.05,6.89,2.55,13.69,5.12,20.2,2.68,6.79,6.49,13.22,11.16,18.83,9.82,11.79,23.12,20.07,37.39,25.41,1.27.47,2.13,1.67,1.75,3.08-.05.18-.13.35-.22.51-.01.03-.02.06-.03.09-1.98,3.99-3.17,8.34-4.11,12.67-2.14,9.86-3.16,20.05-4.15,30.08-1.15,11.58-1.79,23.23-1.35,34.87.77,20.46,5.11,41.17,15.49,59.01,9.99,17.17,25.8,31.28,43.15,40.74,4.34,2.36,8.82,4.44,13.48,6.09,4.58,1.63,9.31,2.82,14.02,3.98,10.16,2.5,20.47,4.49,30.89,5.54,10.09,1.02,20.08-.01,30.23-.26,16.61-.41,16.17-1.1,23.99-2.88,7.87-1.79,15.93-3.98,23.49-6.81,4.49-1.68,8.44-3.81,12.85-5.7,3.97-1.7,7.82-4.42,11.6-6.51,14.14-7.83,25.82-20.1,34.49-33.62,4.99-7.79,9.17-16.21,12.04-25.01,1.32-4.05,2.44-8.18,3.45-12.32.91-3.76,1.89-7.61,1.99-11.49.12-4.51-.82-9.08-2.79-13.15-1-2.06-2.21-4.06-3.69-5.82Zm-30.28-113.52c3.6-2.83,6.96-5.96,9.98-9.41,10.59-12.11,15.89-27.54,19.51-42.96.74-3.14,5.56-1.8,4.82,1.33-1.13,4.8-2.4,9.58-3.94,14.27-2.55,7.74-5.82,15.31-10.26,22.17-4.48,6.93-10.09,13.05-16.57,18.14-1.07.84-2.49,1.05-3.54,0-.87-.87-1.06-2.7,0-3.54Zm-214.05,15.5c-5.14-1.2-10.11-3.03-14.88-5.26-8.89-4.16-17.08-9.81-24.39-16.34-7.09-6.33-13.42-13.65-18.34-21.8-1.67-2.76,2.66-5.27,4.32-2.52,2.59,4.29,5.58,8.31,8.89,12.07,11.93,13.55,27.97,24.89,45.74,29.04,3.14.73,1.8,5.55-1.33,4.82Zm175.31,7.74c3.79-.21,7.62.21,11.29,1.18,13.08,3.46,24.2,13.86,27.89,26.95.88,3.11-3.95,4.42-4.82,1.33-.92-3.26-2.34-6.29-4.22-9.1-6.56-9.83-18.31-16-30.14-15.36-3.22.17-3.2-4.83,0-5Zm-131.18,28.13c1.03-3.64,2.62-7.15,4.72-10.3,7.5-11.24,20.84-18.57,34.46-17.83,3.21.17,3.22,5.17,0,5-3.37-.18-6.7.14-9.96,1.01-11.41,3.02-21.17,12.01-24.4,23.46-.87,3.1-5.7,1.77-4.82-1.33Zm173.4,78.45c-.32,1.36-.86,2.68-1.39,3.97-3.33,8.06-8.58,15.11-14.68,21.29-2.72,2.75-5.66,5.26-8.7,7.65-1.8,1.42-3.63,2.81-5.46,4.18-1.84,1.38-3.66,2.87-5.76,3.85-.73.34-1.49.64-2.28.86-2.78,8.93-9.16,16.11-17.15,20.9-7.89,4.73-17.24,7.57-26.46,7.65-9.85.09-19.76-2.8-28.11-7.99-8.08-5.02-14.47-12.28-19.55-20.26-2.57-4.04-4.87-8.35-6.71-12.85-1.28,4.77-3.71,9.17-7.63,12.59-3.2,2.79-6.97,4.34-11.1,5.17-3.88.78-7.93,1.12-11.89.85-3.52-.24-6.64-1.26-9.72-2.97-3.92-2.18-7.64-5.32-9.7-9.37-1.45-2.87,2.86-5.39,4.32-2.52,1.9,3.74,5.39,6.37,9.08,8.2,1.3.65,2.66,1.19,4.17,1.47.16.03.32.05.48.08.04,0,.07.01.09.01.42.05.85.09,1.28.12.86.06,1.72.08,2.58.08,3.45,0,6.9-.38,10.23-1.29,3.42-.93,6.19-2.59,8.62-5.33,5.65-6.4,6.4-15.85,4.45-23.85-1.93-7.9-8.36-14.09-16.48-15.32-7.59-1.15-16.46.52-22.06,6.03-2.3,2.26-5.83-1.28-3.54-3.54,3.88-3.81,8.92-6.17,14.25-7.11,2.34-.42,4.81-.66,7.26-.66-.25-.81-.44-1.62-.64-2.29-.64-2.12-1.17-4.27-1.6-6.44-.94-4.68-1.49-9.44-1.66-14.21-.32-8.95.6-18.07,3.1-26.69,3.25-11.21,10.82-26.39,24.43-26.51,7.75.07,13.84,5.55,17.88,11.71,4.75,7.23,7.34,15.9,8.63,24.39,1.54,10.08,1.42,20.4-.48,30.43-1.55,8.19-4.37,16.61-9.4,23.35-2.5,3.35-5.61,6.32-9.29,8.13,2.27.98,4.6,1.84,6.98,2.54,15.29,4.53,32.96,3.85,46.94-4.3-1.18-2.06-2.22-4.22-3.15-6.39-1.09-2.54-2.83-5.55-1.45-8.26,1.78-3.5,5.44-6.02,8.82-7.81,3.37-1.8,7.03-3.1,10.8-4.01-.85-4.05-1.28-8.18-1.31-12.31-1.52-10.1-.93-20.62,1.68-30.35,2.47-9.21,7.19-19.21,15.64-24.34,3.34-2.03,7.31-3.09,11.22-2.66,4.28.47,8.08,2.45,11.29,5.26,7.74,6.79,11.66,17.56,13.39,27.44,2.23,12.76,1.47,26.43-3.17,38.58-.02.05-.04.09-.06.13.93.35,1.86.72,2.78,1.14,3.62,1.66,7.07,4.02,9.31,7.37.91,1.36,1.26,2.63.89,4.23Z"/>
        </g>
        <g>
          <g id="cabeza">
            <path class="cls-5" d="m205.03,137.95c17.14,1.29,34.24,6.01,48.68,15.54,3.99,2.63,7.7,5.62,11.13,8.94,2.32,2.23,5.86-1.3,3.54-3.54-13.06-12.6-29.98-20.35-47.67-23.85-5.18-1.02-10.42-1.7-15.68-2.1-1.35-.1-2.5,1.22-2.5,2.5,0,1.44,1.15,2.4,2.5,2.5h0Z"/>
            <path class="cls-5" d="m288.11,191.49c13.14-7.81,24.99-18.15,32.83-31.4,7.5-12.67,10.55-27.05,10.44-41.67-.03-3.36-.13-6.73-.44-10.07-.26-2.87-.52-5.95-1.85-8.57-1.89-3.74-5.63-6.91-9.84-7.55-3.66-.56-7.01.88-10.02,2.86-3.2,2.1-6.08,4.67-8.92,7.22-2.56,2.3-5.07,4.87-8.3,6.23-3.43,1.44-7.2,1.37-10.83,1.01-4.01-.4-7.98-1.14-12.01-1.26s-8.09.31-11.81,1.95c-3.36,1.48-6.34,3.81-8.98,6.32-5.66,5.37-10.27,12.03-13.85,18.94-.75,1.45-1.45,2.93-2.09,4.43-.53,1.24-.37,2.68.9,3.42,1.05.61,2.89.35,3.42-.9,2.73-6.46,6.52-12.63,11.05-17.99,4.19-4.96,9.43-10.02,16.01-10.94,7.79-1.09,15.41,1.73,23.17,1.18,3.94-.28,7.74-1.49,10.96-3.83,2.74-1.99,5.17-4.41,7.71-6.64s5.24-4.54,8.31-6.13c.66-.34.95-.48,1.68-.71.3-.09.6-.18.9-.24.16-.04.34-.07.51-.09-.4.05.14.01.26.01,1.64,0,3.15.57,4.46,1.55.7.53,1.35,1.2,1.89,1.89.24.31.45.64.66.98.13.21.25.43.37.65.03.07.34.71.18.34-.14-.32.09.28.13.4.09.27.16.55.23.83.16.65.28,1.3.39,1.96.43,2.67.59,6.06.69,9.06.2,6.35.07,12.73-1.01,19-1.18,6.84-3.28,13.52-6.42,19.72-6.41,12.66-16.62,22.87-28.38,30.65-1.61,1.07-3.26,2.09-4.92,3.08-2.76,1.64-.25,5.97,2.52,4.32h0Z"/>
            <path class="cls-5" d="m132.59,140.06c-15.09,6.03-30.27,12.49-42.11,23.97-3.48,3.37-6.58,7.09-9.41,11.02-.79,1.1-.19,2.78.9,3.42,1.26.74,2.63.2,3.42-.9,4.51-6.26,9.97-11.87,16.21-16.4s12.87-7.96,19.77-11.05c4.14-1.85,8.34-3.56,12.55-5.24,1.25-.5,2.13-1.67,1.75-3.08-.33-1.19-1.81-2.25-3.08-1.75h0Z"/>
            <path class="cls-5" d="m59.66,202.56c-14.28-5.34-27.57-13.62-37.39-25.41-4.67-5.61-8.48-12.04-11.16-18.83s-4.07-13.3-5.12-20.2c-.49-3.23-.93-6.56-.95-9.9,0-.65.03-1.29.06-1.93s-.1.23.04-.33c.08-.31.14-.62.24-.93.56-1.77,1.63-3.41,3.06-4.61,2.7-2.26,5.41-1.65,8.4-.5,3.57,1.37,6.86,3.52,10.1,5.52s6.28,4.02,9.9,4.95c3.89,1,7.9.69,11.77-.25s7.52-2.37,11.33-3.36c1.99-.52,4.01-.94,6.06-1.1.94-.07,1.89-.13,2.83-.09.29.01.58.04.87.07-.54-.06.44.09.57.11,2.97.62,5.24,1.83,7.88,3.46,2.99,1.85,5.77,4.03,8.42,6.35,2.83,2.48,5.51,5.12,8.07,7.87,1.21,1.31,2.4,2.65,3.55,4.01.95,1.13,1.98,2.4,2.7,3.36.79,1.05,1.55,2.11,2.26,3.21,1.75,2.68,6.08.18,4.32-2.52-3.79-5.8-8.53-11.07-13.49-15.89-5.29-5.14-11.24-10.29-18.09-13.23-3.22-1.38-6.37-2-9.88-1.72-4.45.35-8.7,1.59-12.93,2.94-3.64,1.16-7.36,2.43-11.2,2.42s-6.93-1.56-10.08-3.48c-3.43-2.09-6.8-4.31-10.42-6.07s-7.27-3.17-11.15-2.39c-4.57.92-7.95,4.87-9.49,9.08-1.06,2.91-.74,6.25-.46,9.27,1.43,15.26,5.52,30.31,14.42,42.97,9.35,13.31,22.77,23.13,37.62,29.53,1.99.86,3.99,1.67,6.01,2.42,1.26.47,2.74-.53,3.08-1.75.38-1.4-.48-2.6-1.75-3.08h0Z"/>
            <path class="cls-5" d="m56.83,203.71c-4.71,9.5-5.98,20.37-7.28,30.77-1.56,12.48-2.87,24.99-3.11,37.58-.46,23.37,2.85,47.2,13.5,68.25,10.02,19.81,26.86,34.91,45.98,45.78,8.35,4.75,17.34,9.14,26.65,11.66,7.67,2.08,15.6,3.21,23.48,4.17s16.51,1.69,24.8,2.1c5.61.28,11.28.56,16.89.12,9.07-.71,18.16-1.59,27.08-3.45,8.99-1.88,17.65-4.87,26.07-8.49,8.11-3.48,16.36-7.21,23.71-12.15,6.45-4.34,12.45-9.41,17.99-14.86,13.8-13.6,24.97-30.06,30.51-48.74,2.66-8.96,5.63-18.67,4.14-28.08-.82-5.16-2.92-10.2-6.03-14.39-1.61-2.18-3.49-4.02-5.42-5.9s-3.34-3.58-3.9-6.14-.46-5.31-.65-7.94-.43-5-.73-7.5c-.66-5.36-1.57-10.68-2.78-15.94-2.38-10.32-5.87-20.45-10.76-29.86-2.3-4.42-4.93-8.65-7.94-12.62-.82-1.07-2.16-1.64-3.42-.9-1.06.62-1.72,2.34-.9,3.42,12.3,16.18,18.55,36.77,20.91,56.76.28,2.42.51,4.84.67,7.27.19,2.8.17,5.64.73,8.4,1.13,5.54,5.62,8.43,9.06,12.46,3.18,3.73,5.23,8.36,6.15,13.15.85,4.42.37,8.76-.54,13.12-1.84,8.78-4.24,17.63-8.03,25.79-4.08,8.8-9.46,16.98-15.67,24.42-9.61,11.5-21.07,21.88-34.46,28.73-9,4.6-18.21,8.87-27.85,11.96-7.94,2.55-16.12,4.2-24.39,5.2-6.85.83-13.77,1.56-20.68,1.49s-14.22-.5-21.3-1.08c-15.53-1.27-31.42-2.95-45.89-9.06-9.84-4.16-19.25-9.46-27.91-15.72s-16.37-13.33-22.64-21.72c-13.17-17.62-19.35-39.5-20.98-61.21-.93-12.41-.51-24.89.57-37.27.97-11.08,2.07-22.35,4.31-33.26.97-4.71,2.2-9.46,4.34-13.78,1.42-2.87-2.89-5.41-4.32-2.52h0Z"/>
            <path class="cls-5" d="m14.27,134.22c4.92,8.15,11.25,15.46,18.34,21.8,7.31,6.53,15.5,12.19,24.39,16.34,4.78,2.23,9.74,4.07,14.88,5.26,3.13.73,4.47-4.09,1.33-4.82-17.76-4.14-33.81-15.49-45.74-29.04-3.31-3.76-6.3-7.78-8.89-12.07-1.66-2.75-5.99-.24-4.32,2.52h0Z"/>
            <path class="cls-5" d="m289.46,165.66c6.48-5.1,12.09-11.22,16.57-18.14s7.72-14.43,10.26-22.17c1.54-4.69,2.81-9.46,3.94-14.27.73-3.13-4.09-4.47-4.82-1.33-3.62,15.42-8.92,30.85-19.51,42.96-3.02,3.45-6.38,6.58-9.98,9.41-1.06.84-.87,2.66,0,3.54,1.05,1.05,2.47.84,3.54,0h0Z"/>
          </g>
          <g id="boca">
            <path class="cls-5" d="m109.88,295.13c5.6-5.51,14.46-7.18,22.06-6.03,8.12,1.23,14.56,7.42,16.48,15.32s1.2,17.46-4.45,23.85c-2.42,2.74-5.2,4.4-8.62,5.33s-6.79,1.28-10.23,1.29c-.86,0-1.72-.02-2.58-.08-.43-.03-.85-.07-1.28-.12-.09,0-.5-.07-.03,0-.18-.03-.36-.06-.54-.09-1.51-.28-2.87-.82-4.17-1.47-3.69-1.83-7.18-4.46-9.08-8.2-1.46-2.87-5.77-.34-4.32,2.52,2.06,4.06,5.77,7.19,9.7,9.37,3.08,1.72,6.21,2.73,9.72,2.97,3.96.27,8.01-.07,11.89-.85,4.13-.83,7.9-2.39,11.1-5.17,7.72-6.73,9.67-17.2,8.39-26.93-.7-5.28-2.54-10.17-6.02-14.25-3.03-3.55-7.14-6.19-11.58-7.6-4.98-1.58-10.62-1.43-15.72-.53s-10.37,3.3-14.25,7.11c-2.3,2.26,1.24,5.8,3.54,3.54h0Z"/>
            <path class="cls-5" d="m150.55,307.15c15.5,8.85,35.12,11.32,52.3,6.39,4.74-1.36,9.33-3.33,13.52-5.93,2.73-1.69.22-6.02-2.52-4.32-14.15,8.77-32.35,9.59-48.05,4.94-4.44-1.31-8.7-3.1-12.72-5.4-2.8-1.6-5.32,2.72-2.52,4.32h0Z"/>
            <path class="cls-5" d="m149.4,308.12c1.47,9.21,5.48,18.09,10.46,25.92s11.46,15.24,19.55,20.26,18.26,8.08,28.11,7.99c9.22-.08,18.56-2.92,26.46-7.65,8.44-5.06,15.09-12.77,17.59-22.41.81-3.12-4.01-4.45-4.82-1.33-1.95,7.53-6.81,13.76-13.22,18.1-6.76,4.57-15.04,7.61-23.2,8.18-9.05.63-18.19-1.49-26.13-5.86s-13.71-10.47-18.59-17.62c-5.49-8.05-9.84-17.23-11.39-26.9-.21-1.33-1.88-2.08-3.08-1.75-1.42.39-1.96,1.74-1.75,3.08h0Z"/>
            <path class="cls-5" d="m241.26,275.91c-8.28-.06-16.96,1.63-24.31,5.55-3.37,1.79-7.04,4.31-8.82,7.81-1.38,2.71.36,5.72,1.45,8.26,1.49,3.48,3.19,6.96,5.47,9.99,2.69,3.59,5.73,6.9,8.99,9.98,4.65,4.4,9.68,8.45,14.95,12.07,1.64,1.13,3.41,2.12,5.21,2.99,1.53.74,3.21,1.54,4.95,1.49,1.48-.04,2.93-.57,4.25-1.18,2.1-.98,3.92-2.47,5.76-3.85s3.66-2.76,5.46-4.18c3.03-2.39,5.98-4.9,8.7-7.65,6.1-6.18,11.36-13.23,14.68-21.29.53-1.29,1.07-2.61,1.39-3.97.37-1.59.02-2.86-.89-4.22-2.23-3.35-5.69-5.71-9.31-7.37-11.47-5.27-24.23-4.43-36.52-4.43h-1.42c-3.22,0-3.22,5,0,5h11.84c5.44,0,10.82.14,16.16,1.35,3.64.83,7.21,2.03,10.41,3.98,1.35.82,2.67,1.76,3.72,2.95.16.18,1.38,1.8,1.29,1.85-.19.11.2-1.48-.1-.43-1.97,6.97-6.07,13.08-10.7,18.56s-10.36,10.37-16.25,14.8c-1.76,1.33-3.5,2.75-5.4,3.87-.66.39-1.21.68-1.77.87-.28.1-.56.18-.85.25-.15.04-.93.14-.51.11.44-.03-.19,0-.32-.01.55.01-.26-.09-.47-.15-.71-.22-1.16-.44-1.88-.8-1.35-.68-2.67-1.43-3.96-2.21-3.52-2.15-6.52-4.65-9.62-7.24-5.76-4.82-11.72-10.23-15.53-16.77-1.69-2.89-3.13-5.92-4.25-8.99-.17-.47-.34-.95-.47-1.43-.05-.17-.06-.37-.13-.53-.11-.25.06.76.03.74.09.07-.12.1.1-.14.13-.14.23-.38.34-.54.19-.29.39-.56.61-.82.52-.62,1.11-1.16,1.73-1.67,5.59-4.64,13.51-6.66,20.6-7.35,1.79-.17,3.59-.25,5.39-.24,3.22.02,3.22-4.98,0-5Z"/>
            <path class="cls-5" d="m185.12,315.13c2.19,8.56,7.88,16.05,15.41,20.63s17.61,5.9,26.46,3.34c5.11-1.48,9.8-4.12,13.7-7.74,2.36-2.19-1.18-5.72-3.54-3.54-5.91,5.48-14.04,8.14-22.04,7.55s-14.61-4.55-19.49-10.38c-2.72-3.24-4.64-7.11-5.69-11.2-.8-3.12-5.62-1.8-4.82,1.33h0Z"/>
            <path class="cls-5" d="m212.61,319.45c0,6.48,0,12.96,0,19.44,0,3.22,5,3.22,5,0,0-6.48,0-12.96,0-19.44,0-3.22-5-3.22-5,0h0Z"/>
            <path class="cls-5" d="m178.76,349.8c1.57-7.15,9.9-9.63,16.28-10.49,7.88-1.06,16.17.87,21.78,6.74,2.64,2.76,4.62,6.36,5.08,10.2.16,1.34,1.03,2.5,2.5,2.5,1.23,0,2.66-1.15,2.5-2.5-1.09-9.1-7.43-16.54-15.81-19.99-8.93-3.67-20.07-2.7-28.58,1.7-4.22,2.19-7.52,5.79-8.56,10.51-.69,3.14,4.13,4.48,4.82,1.33h0Z"/>
            <ellipse class="cls-5" cx="242.29" cy="301.39" rx="3.9" ry="8.93"/>
            <ellipse class="cls-5" cx="260.28" cy="301.39" rx="3.9" ry="8.93"/>
          </g>
          <g id="ojos">
            <path class="cls-5" d="m151.47,207.69c-13.6.12-21.18,15.3-24.43,26.51-2.5,8.61-3.42,17.74-3.1,26.69.17,4.77.72,9.54,1.66,14.21.44,2.17.97,4.32,1.6,6.44s1.14,5.4,3.41,6.08c1.16.35,2.38.48,3.5.97,1,.44,2.01.87,2.99,1.36,2.01.99,3.98,2.16,5.7,3.6,3.55,2.97,5.95,6.77,6.52,11.43.16,1.3,1.02,2.55,2.5,2.5,6.85-.25,12.3-4.63,16.25-9.91,5.04-6.74,7.85-15.16,9.4-23.35,1.9-10.03,2.02-20.35.48-30.43-1.29-8.49-3.88-17.16-8.63-24.39-4.04-6.15-10.13-11.64-17.88-11.71-3.22-.03-3.22,4.97,0,5,.31,0,.62.01.93.03.12,0,1,.12.49.04.69.11,1.37.27,2.03.47.3.09.59.2.89.31.07.03.44.18.06.02.15.06.29.13.43.2.62.3,1.23.63,1.81,1,2.17,1.36,4.38,3.6,5.97,5.8,4.51,6.22,7.02,13.71,8.49,21.19,1.77,9,1.98,18.46.7,27.54-1.12,7.93-3.34,15.96-7.53,22.85-.95,1.56-1.89,2.91-3.03,4.21-.58.66-1.18,1.3-1.82,1.9-.29.27-.59.54-.89.8-.13.11-.27.22-.4.34-.08.07-.46.36-.21.16-.63.47-1.3.91-1.99,1.3-.32.18-.64.34-.97.51-.6.3-.09.08-.72.31-.66.24-1.33.45-2.02.6-.18.04-1.19.19-.71.14-.39.04-.77.07-1.16.08l2.5,2.5c-.72-5.83-3.23-10.85-7.7-14.72s-9.47-6.21-14.91-7.52l1.75,1.75c-4.56-12.16-5.62-25.74-3.83-38.56,1.39-9.96,4.61-21.14,11.75-28.37,1.61-1.63,2.91-2.66,5.02-3.7,1.44-.7,3.36-1.16,5.05-1.17,3.22-.03,3.22-5.03,0-5Z"/>
            <g>
              <path class="cls-5" d="m150.29,232.78c-9.54,0-17.28,15.01-17.28,33.53,0,7.73,1.35,14.84,3.62,20.52,6.26,2.66,11.85,7.13,14.04,12.99.59,1.58,7.27-3.47,7.79-3.96,2.5-2.38,4.28-5.55,5.87-9.99,2.35-6.57,3.24-15.77,3.24-15.77,0,0-11.24-4.32-13.66-5.63,3.36-3.51,12.04-10.93,12.04-10.93,0,0-1.21-6.21-2.82-9.66-2.36-5.06-6.6-11.09-12.84-11.09Z"/>
              <path class="cls-5" d="m150.29,230.28c-7.74.1-12.84,7.21-15.58,13.66-4.1,9.66-4.98,20.7-3.61,31.04.36,2.73.88,5.44,1.63,8.1.32,1.13.68,2.25,1.09,3.36.2.54.37,1.16.66,1.65.49.84,1.34,1.07,2.15,1.46,4.1,1.93,8.06,4.69,10.46,8.62,1.03,1.68,1.39,4.12,3.69,4.41,1.54.19,3.04-.61,4.33-1.36,2.57-1.48,5.07-3.25,6.92-5.6,5.51-7.03,7.19-16.85,8.05-25.53.11-1.16-.87-2.04-1.84-2.41-1.94-.75-3.87-1.5-5.79-2.27-1.48-.59-2.95-1.19-4.42-1.8-.25-.11.2.09-.2-.08-.14-.06-.28-.12-.43-.18-.29-.13-.58-.25-.87-.38-.46-.2-.91-.41-1.35-.65l.51,3.93c3.76-3.89,7.93-7.42,12.04-10.93.7-.6.81-1.59.64-2.43-1.81-9.23-6.8-22.38-18.07-22.59-3.22-.06-3.22,4.94,0,5,4.72.09,7.87,4.46,9.88,8.25,1.72,3.25,2.65,7,3.36,10.66l.64-2.43c-4.11,3.52-8.28,7.04-12.04,10.93-1.07,1.11-.95,3.16.51,3.93,4.51,2.38,9.5,4.05,14.26,5.88l-1.84-2.41c-.24,2.47-.59,4.68-1.15,7.5-.88,4.47-2.1,8.99-4.44,12.94-.84,1.42-1.83,2.61-3.02,3.75-.42.4.31-.22-.05.04-.21.15-.41.3-.61.45-.6.44-1.21.86-1.84,1.27-.58.38-1.18.75-1.79,1.08-.15.08-.91.46-.67.35.29-.13-.54.13-.61.18-.03.02.57-.05.78.02l.43.26c.4.16.69.45.85.87-.25-.07-.53-1.27-.69-1.59-.5-1.04-1.1-2.02-1.78-2.95-3.2-4.33-7.67-7.49-12.59-9.61l1.15,1.49c-3.38-8.57-4.16-18.07-3.11-27.18.8-6.97,2.97-15.05,7.72-20.19.54-.58,1.12-1.14,1.74-1.64-.27.22.06-.05.1-.07.2-.15.4-.29.61-.42.27-.17.55-.34.83-.49.14-.08.28-.15.42-.22.67-.34-.43.14.26-.12.32-.12.65-.23.98-.32s.66-.16,1-.21c-.52.07.55-.01.7-.01,3.22-.04,3.22-5.04,0-5Z"/>
            </g>
            <path class="cls-5" d="m276.5,279.07c4.64-12.16,5.4-25.83,3.17-38.58-1.73-9.88-5.65-20.65-13.39-27.44-3.21-2.82-7.01-4.79-11.29-5.26-3.91-.43-7.88.63-11.22,2.66-8.46,5.13-13.18,15.13-15.64,24.34-3.72,13.87-3.36,29.38,1.42,42.94.37,1.05,1.26,1.84,2.41,1.84,14.05-.05,28.14-.18,42.13,1.34,1.34.15,2.5-1.25,2.5-2.5,0-1.47-1.15-2.35-2.5-2.5-13.99-1.52-28.08-1.39-42.13-1.34l2.41,1.84c-3.97-11.28-4.73-23.83-2.5-35.56,1.69-8.89,5.14-18.45,12.14-24.44,1.11-.95,2.71-2,4.31-2.71-.28.13.62-.23.79-.29.39-.13.78-.25,1.18-.35,1.1-.28,1.22-.3,2.24-.35,1.92-.1,2.83.03,4.66.62.96.31,1.09.37,1.94.81s1.66.94,2.43,1.49c1.23.88,2.79,2.41,3.97,3.8,1.3,1.53,2.46,3.3,3.48,5.13,2.42,4.3,4.04,8.99,5.14,13.79,2.97,12.89,2.25,27.01-2.47,39.39-.48,1.26.53,2.74,1.75,3.08,1.41.39,2.59-.48,3.08-1.75Z"/>
            <path class="cls-5" d="m120.83,214.82c3.23-11.45,12.99-20.43,24.4-23.46,3.26-.86,6.59-1.19,9.96-1.01s3.21-4.83,0-5c-13.62-.74-26.96,6.59-34.46,17.83-2.1,3.15-3.69,6.66-4.72,10.3-.87,3.1,3.95,4.43,4.82,1.33h0Z"/>
            <path class="cls-5" d="m286.37,213.49c-3.69-13.09-14.81-23.48-27.89-26.95-3.67-.97-7.5-1.39-11.29-1.18-3.2.17-3.22,5.17,0,5,11.83-.64,23.59,5.53,30.14,15.36,1.88,2.81,3.3,5.85,4.22,9.1s5.7,1.78,4.82-1.33h0Z"/>
            <g>
              <path class="cls-5" d="m250.91,277.37c2.84.06,7.09-.04,10.97.64,1.12-4.99,1.59-9.63,1.59-9.63,0,0-11.24-4.24-13.66-5.52,3.36-3.44,12.04-10.73,12.04-10.73,0,0-1.21-6.1-2.82-9.48-2.36-4.97-6.6-10.88-12.84-10.88-9.54,0-17.28,14.73-17.28,32.9,0,4.82.56,9.38,1.54,13.5,6.66-1.11,13.9-.94,20.46-.8Z"/>
              <path class="cls-5" d="m250.91,279.87c3.44.06,6.91-.02,10.31.55,1.28.21,2.76-.32,3.08-1.75.75-3.39,1.32-6.84,1.67-10.29.12-1.15-.87-2.05-1.84-2.41-1.94-.73-3.87-1.48-5.79-2.23-1.48-.58-2.95-1.16-4.42-1.77-.12-.05-1.03-.43-.62-.26-.29-.12-.58-.25-.87-.38-.46-.2-.91-.4-1.35-.63l.51,3.93c3.76-3.82,7.93-7.28,12.04-10.73.7-.59.81-1.6.64-2.43-.93-4.65-2.29-9.25-4.82-13.29-3.1-4.95-8.12-9.53-14.39-8.83-4.93.55-8.73,3.91-11.46,7.86-3.39,4.9-5.27,10.9-6.26,16.73-1.39,8.25-1.19,16.75.72,24.91.33,1.42,1.78,1.96,3.08,1.75,6.53-1.06,13.21-.85,19.79-.71,3.22.07,3.22-4.93,0-5-7.06-.15-14.13-.25-21.12.89l3.08,1.75c-1.52-6.5-1.81-13.25-1.05-19.88.61-5.34,2.02-10.8,4.63-15.53,1.05-1.9,2.11-3.45,3.62-4.93.79-.78,1.05-1,1.89-1.54.38-.24.77-.45,1.16-.65.1-.05.57-.26.16-.09.29-.12.58-.22.88-.31.37-.11.74-.2,1.12-.26.73-.13-.5.02.24-.02.23-.01.46-.03.69-.03,1.05,0,2.09.22,3.04.66,2.22,1.01,3.97,2.91,5.32,4.9,2.66,3.92,3.96,8.33,4.89,12.97l.64-2.43c-4.1,3.45-8.28,6.9-12.04,10.73-1.08,1.1-.95,3.17.51,3.93,4.52,2.34,9.5,3.98,14.26,5.77l-1.84-2.41c-.3,2.94-.83,5.93-1.5,8.96l3.08-1.75c-3.86-.65-7.73-.66-11.64-.73-3.22-.06-3.22,4.94,0,5Z"/>
            </g>
          </g>
          <g id="gorro">
            <path class="cls-5" d="m227.06,139.09c1.62-9.55,4.16-18.77,7.65-27.8l-3.08,1.75c1.99.46,4.63-.53,6.55-1.12,2.12-.65,4.2-1.49,6.2-2.46,3.76-1.83,7.23-4.29,10.26-7.17,6.04-5.76,10.33-13.44,11.97-21.63,3.19-15.88-3.09-34.52-17.12-43.36-7.83-4.94-17.2-6.03-26.2-4.55l3.08,1.75c-2.06-13.16-10.57-25.01-22.68-30.7-10.41-4.9-22.44-5.08-32.94-.35-6.11,2.75-11.22,7.19-15.2,12.54l3.42-.9c-9.32-5.99-20.64-8.4-31.54-6.18-9.2,1.87-17.52,7.09-23.08,14.65-3.22,4.38-5.33,9.58-6.2,14.94l1.75-1.75c-15.9,3.88-28.41,17.18-31.02,33.38-1.28,7.93-.36,15.98,2.81,23.37,2.99,6.97,8.01,12.91,14.19,17.28,6.9,4.88,15.29,7.52,23.73,7.56l-2.5-2.5c0,1.3.72,2.25,1.34,3.34.66,1.17,1.29,2.36,1.91,3.55,1.31,2.55,2.53,5.15,3.72,7.76,2.5,5.49,4.83,11.06,7.25,16.59.54,1.24,2.35,1.52,3.42.9,1.28-.75,1.44-2.18.9-3.42-4.36-9.95-8.27-20.26-13.87-29.61l.34,1.26v-.37c0-1.36-1.15-2.49-2.5-2.5-13.44-.07-26.06-7.73-32.31-19.64s-4.96-28.04,3.55-39.03c5.07-6.55,12.35-11.15,20.38-13.1.77-.19,1.61-.93,1.75-1.75,1.36-8.29,5.83-15.75,12.76-20.57,6.98-4.85,15.5-6.87,23.92-5.99,5.99.63,11.74,2.9,16.79,6.14,1.23.79,2.64.15,3.42-.9,6.07-8.14,15.65-13.18,25.62-13.54s19.79,3.77,26.71,11.18c5.1,5.46,8.2,12.32,9.35,19.68.22,1.43,1.87,1.94,3.08,1.75,6.88-1.13,14.08-.39,20.17,2.78s10.5,8.17,13.5,14.25c6.62,13.44,5.3,30.06-4.66,41.5-5.65,6.49-13.28,10.69-21.75,12.16h1.33l-.25-.06c-1.42-.33-2.57.44-3.08,1.75-3.5,9.03-6.04,18.26-7.65,27.8-.23,1.33.35,2.69,1.75,3.08,1.2.33,2.85-.41,3.08-1.75h0Z"/>
            <path class="cls-5" d="m218.49,69.03c-6.34,6.77-12.2,13.98-17.56,21.55-.78,1.1-.2,2.78.9,3.42,1.25.73,2.64.21,3.42-.9,5.11-7.22,10.72-14.08,16.78-20.53,2.2-2.35-1.33-5.89-3.54-3.54h0Z"/>
            <path class="cls-5" d="m189.97,53.62c-5.42,10.97-9.89,22.39-13.31,34.14-.9,3.1,3.92,4.42,4.82,1.33,3.3-11.34,7.57-22.36,12.8-32.95,1.42-2.87-2.89-5.41-4.32-2.52h0Z"/>
            <path class="cls-5" d="m138.51,58.44c6.11,10.21,11.05,21.06,14.69,32.39.98,3.05,5.81,1.75,4.82-1.33-3.77-11.72-8.86-23.01-15.19-33.58-1.65-2.76-5.98-.25-4.32,2.52h0Z"/>
            <path class="cls-5" d="m111.76,78.27c6.54,6.04,13.19,12.19,17.63,20,1.59,2.8,5.91.28,4.32-2.52-4.66-8.18-11.57-14.69-18.41-21.02-2.36-2.18-5.9,1.35-3.54,3.54h0Z"/>
            <path class="cls-5" d="m111.06,119.27c12.5-7.34,25.66-13.77,39.88-16.98,13.22-2.98,26.93-2.8,40.42-1.14,9.49,1.17,18.89,3.03,28.23,5.06,3.14.68,4.48-4.14,1.33-4.82-15.88-3.45-32.12-6.53-48.44-6.46-13.74.06-27.21,2.78-39.94,7.94-8.32,3.37-16.27,7.53-24.01,12.07-2.77,1.63-.26,5.95,2.52,4.32h0Z"/>
            <path class="cls-5" d="m121.35,149.4c12.72-4.45,25.58-8.88,38.88-11.28,11.86-2.15,24.31-2.2,36.52-1.08,9.14.84,18.21,2.24,27.25,3.8,1.33.23,2.69-.35,3.08-1.75.33-1.2-.41-2.85-1.75-3.08-15.05-2.58-30.34-4.92-45.65-4.73-12.25.15-24.29,2.28-36.06,5.62-7.96,2.26-15.79,4.94-23.59,7.67-1.27.45-2.12,1.71-1.75,3.08.34,1.24,1.8,2.19,3.08,1.75h0Z"/>
          </g>
        </g>
      </g>
      <g>
        <path d="m370.17,164.91c0-5.19.75-9.67,2.27-13.42,1.51-3.74,3.59-6.86,6.25-9.34,2.66-2.48,5.83-4.29,9.52-5.44,3.69-1.15,7.64-1.72,11.87-1.72s8.34.63,11.96,1.9c3.62,1.27,6.71,3.05,9.25,5.35,2.54,2.3,4.5,4.99,5.89,8.07,1.39,3.08,2.08,6.38,2.08,9.88,0,3.75-.82,7.61-2.45,11.6-1.63,3.99-3.44,8.19-5.44,12.6-1.99,4.41-3.81,9.1-5.44,14.05-1.63,4.96-2.45,10.27-2.45,15.95,0,7.61,1.63,13.78,4.89,18.49,3.26,4.71,7.55,7.07,12.87,7.07,3.99,0,7.25-1.18,9.79-3.54,2.54-2.36,4.99-4.98,7.34-7.89,2.36-2.9,4.89-5.53,7.61-7.89,2.72-2.36,6.19-3.53,10.42-3.53,6.4,0,11.39,2.99,14.96,8.97,3.56,5.98,5.35,14.29,5.35,24.93,0,19.46-6.16,33.93-18.49,43.42-12.33,9.49-30.27,14.23-53.84,14.23-7.5,0-13.9-.58-19.22-1.72-5.32-1.15-9.67-2.96-13.05-5.44-3.38-2.48-5.89-5.71-7.52-9.7-1.63-3.99-2.51-8.82-2.63-14.5v-1.81c0-4.59.36-9.36,1.09-14.32.72-4.95,1.48-10,2.27-15.14.79-5.14,1.54-10.3,2.27-15.5.72-5.19,1.09-10.21,1.09-15.05s-.45-9.34-1.36-13.51-1.88-8.25-2.9-12.24c-1.03-3.99-1.99-8-2.9-12.06-.91-4.05-1.36-8.31-1.36-12.78Z"/>
        <path d="m497.79,274.76c0-4.23,1-8.37,2.99-12.42,1.99-4.05,4.41-8,7.25-11.87,2.84-3.87,5.86-7.55,9.06-11.06,3.2-3.5,5.95-6.83,8.25-9.97,3.75-4.95,6.55-9.88,8.43-14.77,1.87-4.89,3.23-9.7,4.08-14.41.84-4.71,1.36-9.27,1.54-13.69.18-4.41.39-8.61.63-12.6.24-3.99.69-7.67,1.36-11.06.66-3.38,1.96-6.4,3.9-9.06,2.17-3.02,4.74-5.56,7.7-7.61,2.96-2.05,6.16-3.74,9.61-5.08,3.44-1.33,7.01-2.29,10.7-2.9,3.68-.6,7.34-.91,10.97-.91,5.32,0,10.24.73,14.77,2.18,4.53,1.45,8.49,4.29,11.87,8.52,1.69,2.06,3.17,4.96,4.44,8.7,1.27,3.75,2.54,7.74,3.81,11.96,1.27,4.23,2.6,8.46,3.99,12.69,1.39,4.23,2.93,7.86,4.62,10.88,2.54,4.35,5.26,8.25,8.16,11.69s5.8,6.77,8.7,9.97c2.9,3.2,5.71,6.41,8.43,9.61,2.72,3.2,5.1,6.65,7.16,10.33,2.05,3.69,3.71,7.77,4.98,12.24,1.27,4.47,1.9,9.61,1.9,15.41,0,5.2-.67,10.03-1.99,14.5-1.33,4.47-3.36,8.28-6.07,11.42-2.72,3.14-6.16,5.62-10.33,7.43-4.17,1.81-9.04,2.72-14.59,2.72-7.01,0-12.87-1.3-17.58-3.9-4.71-2.6-8.58-5.83-11.6-9.7-3.02-3.87-5.47-8.04-7.34-12.51-1.88-4.47-3.57-8.64-5.08-12.51-1.51-3.87-3.02-7.1-4.53-9.7-1.51-2.6-3.42-3.9-5.71-3.9-.48,0-1,.06-1.54.18-.54.12-1,.36-1.36.73-3.26,2.42-5.5,5.62-6.71,9.61-1.21,3.99-2.06,8.25-2.54,12.78-.48,4.53-.97,9.13-1.45,13.78-.48,4.65-1.75,8.82-3.81,12.51-2.06,3.69-5.2,6.71-9.43,9.06-4.23,2.36-10.27,3.54-18.13,3.54-12.45,0-22.15-2.72-29.1-8.16-6.95-5.44-10.42-13.66-10.42-24.65Zm71.42-69.79c0,1.81.45,3.38,1.36,4.71.91,1.33,2.08,2.39,3.54,3.17,1.45.79,3.02,1.39,4.71,1.81,1.69.42,3.32.63,4.89.63,1.45,0,3.05-.18,4.8-.54,1.75-.36,3.38-.97,4.89-1.81,1.51-.84,2.75-1.87,3.72-3.08.97-1.21,1.45-2.72,1.45-4.53,0-1.69-.39-3.44-1.18-5.26-.79-1.81-1.88-3.5-3.26-5.08-1.39-1.57-3.02-2.84-4.89-3.81-1.88-.97-3.84-1.45-5.89-1.45-2.18,0-4.11.48-5.8,1.45-1.69.97-3.17,2.21-4.44,3.72-1.27,1.51-2.24,3.14-2.9,4.89-.67,1.75-1,3.48-1,5.17Z"/>
        <path d="m780.77,137.53c5.19,0,9.27,1.03,12.24,3.08,2.96,2.06,5.17,5.62,6.62,10.7.48,1.69,1.27,4.23,2.36,7.61,1.09,3.38,2.42,7.16,3.99,11.33,1.57,4.17,3.29,8.46,5.17,12.87,1.87,4.41,3.83,8.43,5.89,12.06,2.05,3.63,4.14,6.59,6.25,8.88,2.11,2.3,4.2,3.44,6.25,3.44,1.45,0,2.69-.75,3.72-2.27,1.03-1.51,1.81-3.29,2.36-5.35.54-2.05.93-4.11,1.18-6.16.24-2.05.36-3.56.36-4.53,0-3.26-.36-6.49-1.09-9.7-.72-3.2-1.51-6.37-2.36-9.52-.85-3.14-1.63-6.25-2.36-9.34-.73-3.08-1.09-6.25-1.09-9.52,0-7.25,2.05-12.6,6.16-16.04,4.11-3.44,9.67-5.17,16.68-5.17,2.54,0,5.13.54,7.79,1.63,2.66,1.09,5.04,2.6,7.16,4.53,2.11,1.93,3.84,4.11,5.17,6.53,1.33,2.42,1.99,5.02,1.99,7.79,0,8.34-.48,16.56-1.45,24.65-.97,8.1-1.45,16.31-1.45,24.65,0,5.32.6,10.51,1.81,15.59,1.21,5.08,2.57,10.15,4.08,15.23,1.51,5.08,2.87,10.12,4.08,15.14,1.21,5.02,1.81,10.18,1.81,15.5s-.54,10.06-1.63,14.59c-1.09,4.53-2.78,8.46-5.08,11.78-2.3,3.32-5.26,5.92-8.88,7.79-3.62,1.87-8.04,2.81-13.23,2.81s-9.52-1.09-13.32-3.26c-3.81-2.18-7.01-5.02-9.61-8.52-2.6-3.51-4.56-7.49-5.89-11.96-1.33-4.47-1.99-9-1.99-13.6,0-3.14-.61-7.07-1.81-11.78-1.21-4.71-2.75-9.34-4.62-13.87-1.88-4.53-3.99-8.4-6.34-11.6-2.36-3.2-4.62-4.8-6.8-4.8-1.09,0-1.93.33-2.54,1-.61.67-1.09,1.51-1.45,2.54-.36,1.03-.58,2.08-.63,3.17-.06,1.09-.09,1.99-.09,2.72,0,3.26.6,6.47,1.81,9.61,1.21,3.14,2.51,6.34,3.9,9.61,1.39,3.26,2.69,6.74,3.9,10.42,1.21,3.69,1.81,7.77,1.81,12.24s-.7,8.46-2.08,12.33c-1.39,3.87-3.35,7.25-5.89,10.15s-5.65,5.17-9.34,6.8c-3.69,1.63-7.83,2.45-12.42,2.45-4.35,0-8.37-.85-12.06-2.54-3.69-1.69-6.89-3.96-9.61-6.8-2.72-2.84-4.87-6.16-6.44-9.97-1.57-3.81-2.36-7.89-2.36-12.24,0-7.25.66-14.38,1.99-21.39,1.33-7.01,2.75-13.99,4.26-20.94,1.51-6.95,2.93-13.93,4.26-20.94,1.33-7.01,1.99-14.08,1.99-21.21,0-5.44-.58-10.75-1.72-15.95-1.15-5.19-1.72-9.97-1.72-14.32,0-5.92,2.02-10.39,6.07-13.41,4.05-3.02,8.79-4.53,14.23-4.53Z"/>
        <path d="m937.76,132.46c8.34,0,16.07.3,23.2.91,7.13.61,13.32,1.72,18.58,3.35,5.26,1.63,9.4,3.96,12.42,6.98,3.02,3.02,4.53,6.89,4.53,11.6s-.82,8.07-2.45,10.79-3.81,4.87-6.53,6.44c-2.72,1.57-5.8,2.72-9.25,3.44s-6.95,1.39-10.51,1.99c-3.57.61-7.04,1.27-10.42,1.99-3.38.73-6.34,1.88-8.88,3.44-1.09.61-2.18,1.48-3.26,2.63-1.09,1.15-1.63,2.39-1.63,3.72s.39,2.39,1.18,3.17c.79.79,1.72,1.39,2.81,1.81,1.09.42,2.27.7,3.53.82,1.27.12,2.39.18,3.35.18,3.14,0,6.53-.12,10.15-.36,3.63-.24,6.95.42,9.97,1.99,1.81.97,3.78,2.36,5.89,4.17,2.11,1.81,3.17,3.93,3.17,6.34,0,2.54-.94,4.53-2.81,5.98-1.88,1.45-4.23,2.63-7.07,3.54-2.84.91-5.89,1.69-9.15,2.36-3.26.67-6.32,1.39-9.15,2.18-2.84.79-5.2,1.78-7.07,2.99-1.88,1.21-2.81,2.9-2.81,5.08,0,3.75,1.33,6.38,3.99,7.89,2.66,1.51,5.56,2.27,8.7,2.27,2.9,0,5.77-.24,8.61-.73,2.84-.48,5.65-1,8.43-1.54,2.78-.54,5.59-1.03,8.43-1.45,2.84-.42,5.71-.63,8.61-.63,4.71,0,8.55.76,11.51,2.27,2.96,1.51,5.29,3.6,6.98,6.25,1.69,2.66,2.84,5.77,3.44,9.34.6,3.57.91,7.46.91,11.69,0,10.03-2.27,18.01-6.8,23.93-4.53,5.92-10.33,10.45-17.4,13.6-7.07,3.14-14.8,5.17-23.2,6.07-8.4.91-16.53,1.36-24.38,1.36-6.89,0-13.5-.61-19.85-1.81-6.34-1.21-11.96-3.26-16.86-6.16-4.89-2.9-8.79-6.8-11.69-11.69-2.9-4.89-4.35-11.09-4.35-18.58,0-5.19.91-9.88,2.72-14.05,1.81-4.17,3.78-8.25,5.89-12.24,2.11-3.99,4.08-8.13,5.89-12.42,1.81-4.29,2.72-9.15,2.72-14.59,0-6.16-.57-11.66-1.72-16.5-1.15-4.83-2.39-9.36-3.72-13.6-1.33-4.23-2.57-8.43-3.72-12.6-1.15-4.17-1.72-8.61-1.72-13.32,0-5.56,1.18-10.24,3.54-14.05,2.36-3.81,5.47-6.92,9.34-9.34,3.87-2.42,8.25-4.17,13.14-5.26,4.89-1.09,9.82-1.63,14.77-1.63Z"/>
        <path d="m1052.87,137.53c5.19,0,9.27,1.03,12.24,3.08,2.96,2.06,5.17,5.62,6.62,10.7.48,1.69,1.27,4.23,2.36,7.61,1.09,3.38,2.42,7.16,3.99,11.33,1.57,4.17,3.29,8.46,5.17,12.87,1.87,4.41,3.83,8.43,5.89,12.06,2.05,3.63,4.14,6.59,6.25,8.88,2.11,2.3,4.2,3.44,6.25,3.44,1.45,0,2.69-.75,3.72-2.27,1.03-1.51,1.81-3.29,2.36-5.35.54-2.05.93-4.11,1.18-6.16.24-2.05.36-3.56.36-4.53,0-3.26-.36-6.49-1.09-9.7-.72-3.2-1.51-6.37-2.36-9.52-.85-3.14-1.63-6.25-2.36-9.34-.73-3.08-1.09-6.25-1.09-9.52,0-7.25,2.05-12.6,6.16-16.04,4.11-3.44,9.67-5.17,16.68-5.17,2.54,0,5.13.54,7.79,1.63,2.66,1.09,5.04,2.6,7.16,4.53,2.11,1.93,3.84,4.11,5.17,6.53,1.33,2.42,1.99,5.02,1.99,7.79,0,8.34-.48,16.56-1.45,24.65-.97,8.1-1.45,16.31-1.45,24.65,0,5.32.6,10.51,1.81,15.59,1.21,5.08,2.57,10.15,4.08,15.23,1.51,5.08,2.87,10.12,4.08,15.14,1.21,5.02,1.81,10.18,1.81,15.5s-.54,10.06-1.63,14.59c-1.09,4.53-2.78,8.46-5.08,11.78-2.3,3.32-5.26,5.92-8.88,7.79-3.62,1.87-8.04,2.81-13.23,2.81s-9.52-1.09-13.32-3.26c-3.81-2.18-7.01-5.02-9.61-8.52-2.6-3.51-4.56-7.49-5.89-11.96-1.33-4.47-1.99-9-1.99-13.6,0-3.14-.61-7.07-1.81-11.78-1.21-4.71-2.75-9.34-4.62-13.87-1.88-4.53-3.99-8.4-6.34-11.6-2.36-3.2-4.62-4.8-6.8-4.8-1.09,0-1.93.33-2.54,1-.61.67-1.09,1.51-1.45,2.54-.36,1.03-.58,2.08-.63,3.17-.06,1.09-.09,1.99-.09,2.72,0,3.26.6,6.47,1.81,9.61,1.21,3.14,2.51,6.34,3.9,9.61,1.39,3.26,2.69,6.74,3.9,10.42,1.21,3.69,1.81,7.77,1.81,12.24s-.7,8.46-2.08,12.33c-1.39,3.87-3.35,7.25-5.89,10.15s-5.65,5.17-9.34,6.8c-3.69,1.63-7.83,2.45-12.42,2.45-4.35,0-8.37-.85-12.06-2.54-3.69-1.69-6.89-3.96-9.61-6.8-2.72-2.84-4.87-6.16-6.44-9.97-1.57-3.81-2.36-7.89-2.36-12.24,0-7.25.66-14.38,1.99-21.39,1.33-7.01,2.75-13.99,4.26-20.94,1.51-6.95,2.93-13.93,4.26-20.94,1.33-7.01,1.99-14.08,1.99-21.21,0-5.44-.58-10.75-1.72-15.95-1.15-5.19-1.72-9.97-1.72-14.32,0-5.92,2.02-10.39,6.07-13.41,4.05-3.02,8.79-4.53,14.23-4.53Z"/>
        <path d="m1164.54,274.76c0-4.23,1-8.37,2.99-12.42,1.99-4.05,4.41-8,7.25-11.87,2.84-3.87,5.86-7.55,9.06-11.06,3.2-3.5,5.95-6.83,8.25-9.97,3.74-4.95,6.55-9.88,8.43-14.77,1.87-4.89,3.23-9.7,4.08-14.41.84-4.71,1.36-9.27,1.54-13.69.18-4.41.39-8.61.63-12.6.24-3.99.69-7.67,1.36-11.06.66-3.38,1.96-6.4,3.9-9.06,2.18-3.02,4.74-5.56,7.7-7.61,2.96-2.05,6.16-3.74,9.61-5.08,3.44-1.33,7.01-2.29,10.7-2.9,3.69-.6,7.34-.91,10.97-.91,5.32,0,10.24.73,14.77,2.18s8.49,4.29,11.87,8.52c1.69,2.06,3.17,4.96,4.44,8.7,1.27,3.75,2.54,7.74,3.81,11.96,1.27,4.23,2.6,8.46,3.99,12.69,1.39,4.23,2.93,7.86,4.62,10.88,2.54,4.35,5.26,8.25,8.16,11.69s5.8,6.77,8.7,9.97c2.9,3.2,5.71,6.41,8.43,9.61,2.72,3.2,5.1,6.65,7.16,10.33,2.05,3.69,3.72,7.77,4.98,12.24,1.27,4.47,1.9,9.61,1.9,15.41,0,5.2-.67,10.03-1.99,14.5-1.33,4.47-3.35,8.28-6.07,11.42-2.72,3.14-6.16,5.62-10.33,7.43-4.17,1.81-9.04,2.72-14.59,2.72-7.01,0-12.87-1.3-17.58-3.9-4.71-2.6-8.58-5.83-11.6-9.7-3.02-3.87-5.47-8.04-7.34-12.51-1.88-4.47-3.57-8.64-5.08-12.51-1.51-3.87-3.02-7.1-4.53-9.7-1.51-2.6-3.42-3.9-5.71-3.9-.48,0-1,.06-1.54.18-.54.12-1,.36-1.36.73-3.26,2.42-5.5,5.62-6.71,9.61-1.21,3.99-2.06,8.25-2.54,12.78-.48,4.53-.97,9.13-1.45,13.78-.48,4.65-1.75,8.82-3.81,12.51-2.06,3.69-5.2,6.71-9.43,9.06-4.23,2.36-10.27,3.54-18.13,3.54-12.45,0-22.15-2.72-29.1-8.16-6.95-5.44-10.42-13.66-10.42-24.65Zm71.42-69.79c0,1.81.45,3.38,1.36,4.71.91,1.33,2.08,2.39,3.54,3.17,1.45.79,3.02,1.39,4.71,1.81,1.69.42,3.32.63,4.89.63,1.45,0,3.05-.18,4.8-.54,1.75-.36,3.38-.97,4.89-1.81,1.51-.84,2.75-1.87,3.72-3.08.97-1.21,1.45-2.72,1.45-4.53,0-1.69-.39-3.44-1.18-5.26-.79-1.81-1.88-3.5-3.26-5.08-1.39-1.57-3.02-2.84-4.89-3.81-1.88-.97-3.84-1.45-5.89-1.45-2.18,0-4.11.48-5.8,1.45-1.69.97-3.17,2.21-4.44,3.72-1.27,1.51-2.24,3.14-2.9,4.89-.67,1.75-1,3.48-1,5.17Z"/>
      </g>
      <g>
        <path d="m612.49,322.64c4.92,0,9.34,1.03,13.27,3.1,3.92,2.07,7.27,4.79,10.03,8.18,2.76,3.39,4.88,7.26,6.34,11.6,1.46,4.34,2.19,8.79,2.19,13.34,0,4.23-.65,8.24-1.95,12.05-1.3,3.81-3.17,7.16-5.61,10.06-2.44,2.9-5.39,5.21-8.84,6.93-3.46,1.72-7.35,2.58-11.67,2.58-1.95,0-3.92-.21-5.92-.63-2-.42-3.8-1.1-5.4-2.05-1.6-.95-2.92-2.22-3.94-3.8-1.02-1.58-1.53-3.53-1.53-5.85,0-1.49.14-3.04.42-4.67.28-1.62.59-3.29.94-4.98.35-1.69.66-3.37.94-5.01.28-1.65.42-3.21.42-4.7,0-1.9-.16-3.77-.49-5.61-.33-1.83-.7-3.67-1.11-5.5-.42-1.83-.79-3.68-1.11-5.54-.33-1.86-.49-3.74-.49-5.64,0-4.55,1.09-8,3.27-10.34,2.18-2.34,5.59-3.52,10.24-3.52Zm6.96,18.11c-1.02,0-1.82.3-2.4.91-.58.6-1.02,1.35-1.32,2.23-.3.88-.49,1.82-.56,2.82-.07,1-.1,1.87-.1,2.61,0,.65.01,1.51.03,2.58.02,1.07.16,2.12.42,3.17s.65,1.94,1.18,2.68c.53.74,1.29,1.11,2.26,1.11s2-.27,2.92-.8c.93-.53,1.74-1.24,2.44-2.12.7-.88,1.24-1.89,1.64-3.03.39-1.14.59-2.33.59-3.59,0-.93-.19-1.89-.56-2.89-.37-1-.87-1.92-1.5-2.75-.63-.84-1.37-1.53-2.23-2.09-.86-.56-1.8-.84-2.82-.84Z"/>
        <path d="m665.07,322.43c3.21,0,6.18.12,8.92.35,2.74.23,5.12.66,7.14,1.29,2.02.63,3.61,1.52,4.77,2.68,1.16,1.16,1.74,2.65,1.74,4.46s-.31,3.1-.94,4.14-1.46,1.87-2.51,2.47c-1.04.6-2.23,1.04-3.55,1.32-1.32.28-2.67.53-4.04.77-1.37.23-2.71.49-4.01.77-1.3.28-2.44.72-3.41,1.32-.42.23-.84.57-1.25,1.01-.42.44-.63.92-.63,1.43s.15.92.45,1.22c.3.3.66.53,1.08.7.42.16.87.27,1.36.31.49.05.92.07,1.29.07,1.21,0,2.51-.05,3.9-.14,1.39-.09,2.67.16,3.83.77.7.37,1.45.91,2.26,1.6.81.7,1.22,1.51,1.22,2.44,0,.97-.36,1.74-1.08,2.3-.72.56-1.63,1.01-2.72,1.36-1.09.35-2.26.65-3.52.91-1.25.26-2.43.53-3.52.84-1.09.3-2,.69-2.72,1.15-.72.46-1.08,1.11-1.08,1.95,0,1.44.51,2.45,1.53,3.03,1.02.58,2.13.87,3.34.87,1.11,0,2.22-.09,3.31-.28,1.09-.19,2.17-.38,3.24-.59s2.15-.39,3.24-.56c1.09-.16,2.19-.24,3.31-.24,1.81,0,3.29.29,4.42.87,1.14.58,2.03,1.38,2.68,2.4.65,1.02,1.09,2.22,1.32,3.59.23,1.37.35,2.87.35,4.49,0,3.85-.87,6.92-2.61,9.19-1.74,2.27-3.97,4.02-6.69,5.22-2.72,1.21-5.69,1.99-8.92,2.33-3.23.35-6.35.52-9.37.52-2.65,0-5.19-.23-7.63-.7-2.44-.46-4.6-1.25-6.48-2.37s-3.38-2.61-4.49-4.49c-1.12-1.88-1.67-4.26-1.67-7.14,0-2,.35-3.8,1.04-5.4.7-1.6,1.45-3.17,2.26-4.7.81-1.53,1.57-3.12,2.26-4.77.7-1.65,1.04-3.52,1.04-5.61,0-2.37-.22-4.48-.66-6.34-.44-1.86-.92-3.6-1.43-5.22-.51-1.62-.99-3.24-1.43-4.84-.44-1.6-.66-3.31-.66-5.12,0-2.14.45-3.94,1.36-5.4.91-1.46,2.1-2.66,3.59-3.59,1.49-.93,3.17-1.6,5.05-2.02s3.77-.63,5.68-.63Z"/>
        <path d="m754.78,322.85c2.55,0,4.96.48,7.21,1.43,2.25.95,4.31,2.24,6.16,3.87,1.86,1.63,3.5,3.54,4.95,5.75,1.44,2.21,2.66,4.59,3.66,7.14,1,2.55,1.76,5.2,2.3,7.94.53,2.74.8,5.46.8,8.15,0,3.99-.62,7.81-1.85,11.46-1.23,3.65-3,6.85-5.29,9.61-2.3,2.76-5.11,4.96-8.43,6.58-3.32,1.62-7.09,2.44-11.32,2.44-3.62,0-6.88-.69-9.79-2.05-2.9-1.37-5.36-3.3-7.38-5.78s-3.58-5.43-4.67-8.85c-1.09-3.41-1.64-7.14-1.64-11.18,0-4.83.63-9.44,1.88-13.83,1.25-4.39,3.01-8.26,5.26-11.63,2.25-3.37,4.92-6.05,8.01-8.04,3.09-2,6.47-3,10.13-3Zm-7.38,28.21c0,1.77.68,3.23,2.05,4.39,1.37,1.16,3.15,1.74,5.33,1.74,1.95,0,3.49-.52,4.63-1.57,1.14-1.04,1.71-2.45,1.71-4.21,0-.98-.17-1.88-.52-2.72-.35-.84-.83-1.57-1.43-2.19s-1.31-1.11-2.12-1.46c-.81-.35-1.71-.52-2.68-.52s-1.88.17-2.72.52-1.57.81-2.19,1.39c-.63.58-1.13,1.27-1.5,2.05-.37.79-.56,1.65-.56,2.58Z"/>
        <path d="m809.67,325.71c1.49,0,3.08-.14,4.77-.42,1.69-.28,3.49-.42,5.4-.42,3.25,0,5.56.83,6.93,2.47,1.37,1.65,2.05,3.77,2.05,6.37,0,1.44-.17,2.57-.52,3.38-.35.81-.79,1.42-1.32,1.81-.53.4-1.11.67-1.74.84-.63.16-1.21.33-1.74.49-.53.16-.97.4-1.32.7-.35.3-.52.83-.52,1.57,0,.88.23,1.92.7,3.1.46,1.18.99,2.67,1.57,4.46.58,1.79,1.1,3.96,1.57,6.51.46,2.55.7,5.62.7,9.19,0,8.03-1.86,14.07-5.57,18.11-3.71,4.04-9.24,6.06-16.58,6.06-6.13,0-10.75-1.4-13.86-4.21-3.11-2.81-4.67-6.95-4.67-12.43,0-3.39.56-6.12,1.67-8.18,1.11-2.07,2.58-3.1,4.39-3.1.74,0,1.31.15,1.71.45.39.3.78.63,1.15.98.37.35.79.67,1.25.97.46.3,1.11.45,1.95.45,1.21,0,2.33-.41,3.38-1.22s1.96-1.9,2.75-3.27c.79-1.37,1.42-2.94,1.88-4.7.46-1.76.7-3.62.7-5.57,0-2.09-.26-3.89-.77-5.4-.51-1.51-1.23-2.56-2.16-3.17-.46-.28-1-.46-1.6-.56-.6-.09-1.3-.14-2.09-.14-1.02,0-2.11.04-3.27.1-1.16.07-2.31.04-3.45-.1-1.14-.14-2.21-.45-3.2-.94-1-.49-1.85-1.26-2.54-2.33-.97-1.49-1.46-3.09-1.46-4.81,0-2.37.8-4.27,2.4-5.71,1.6-1.44,3.66-2.16,6.16-2.16,2.18,0,4.6.14,7.24.42,2.65.28,5.34.42,8.08.42Z"/>
        <path d="m847.77,322.29c3.3,0,5.87.71,7.73,2.12,1.86,1.42,2.79,3.38,2.79,5.89,0,1.25-.19,2.67-.56,4.25-.37,1.58-.77,3.26-1.18,5.05-.42,1.79-.81,3.66-1.18,5.61-.37,1.95-.56,3.95-.56,5.99,0,2.23.38,4.27,1.15,6.13.77,1.86,1.61,3.69,2.54,5.5.93,1.81,1.78,3.67,2.54,5.57.77,1.9,1.17,4.02,1.22,6.34v.35c0,10.91-4.69,16.37-14.07,16.37-4.13,0-7.4-1.03-9.79-3.1-2.39-2.07-3.66-4.93-3.8-8.6v-.56c0-2.04.31-3.9.94-5.57s1.3-3.38,2.02-5.12c.72-1.74,1.39-3.61,2.02-5.61.63-2,.94-4.34.94-7.04,0-2.46-.26-4.63-.77-6.51-.51-1.88-1.08-3.63-1.71-5.26-.63-1.62-1.21-3.24-1.74-4.84-.53-1.6-.8-3.38-.8-5.33,0-3.71,1.06-6.58,3.17-8.6,2.11-2.02,5.14-3.03,9.09-3.03Z"/>
        <path d="m877.37,324.38c2,0,3.56.4,4.7,1.18,1.14.79,1.98,2.16,2.54,4.11.18.65.49,1.63.91,2.93.42,1.3.93,2.75,1.53,4.35.6,1.6,1.26,3.25,1.99,4.94.72,1.7,1.47,3.24,2.26,4.63.79,1.39,1.59,2.53,2.4,3.41.81.88,1.61,1.32,2.4,1.32.56,0,1.03-.29,1.43-.87.39-.58.7-1.26.91-2.05.21-.79.36-1.58.45-2.37.09-.79.14-1.37.14-1.74,0-1.25-.14-2.5-.42-3.73-.28-1.23-.58-2.45-.91-3.66-.33-1.21-.63-2.4-.91-3.59s-.42-2.4-.42-3.66c0-2.79.79-4.84,2.37-6.16,1.58-1.32,3.71-1.98,6.41-1.98.97,0,1.97.21,3,.63,1.02.42,1.94,1,2.75,1.74.81.74,1.47,1.58,1.98,2.51.51.93.77,1.93.77,2.99,0,3.2-.19,6.36-.56,9.47-.37,3.11-.56,6.27-.56,9.47,0,2.04.23,4.04.7,5.99.46,1.95.99,3.9,1.57,5.85.58,1.95,1.1,3.89,1.57,5.82.46,1.93.7,3.91.7,5.96s-.21,3.87-.63,5.61c-.42,1.74-1.07,3.25-1.95,4.53-.88,1.28-2.02,2.28-3.41,3s-3.09,1.08-5.08,1.08-3.66-.42-5.12-1.25c-1.46-.84-2.69-1.93-3.69-3.27-1-1.35-1.75-2.88-2.26-4.6-.51-1.72-.77-3.46-.77-5.22,0-1.21-.23-2.72-.7-4.53-.46-1.81-1.06-3.59-1.78-5.33-.72-1.74-1.53-3.23-2.44-4.46-.91-1.23-1.78-1.85-2.61-1.85-.42,0-.74.13-.97.38-.23.26-.42.58-.56.98s-.22.8-.24,1.22-.03.77-.03,1.04c0,1.25.23,2.48.7,3.69.46,1.21.96,2.44,1.5,3.69.53,1.25,1.03,2.59,1.5,4,.46,1.42.7,2.98.7,4.7s-.27,3.25-.8,4.74c-.53,1.49-1.29,2.79-2.26,3.9-.98,1.11-2.17,1.98-3.59,2.61-1.42.63-3.01.94-4.77.94-1.67,0-3.22-.33-4.63-.97-1.42-.65-2.65-1.52-3.69-2.61-1.04-1.09-1.87-2.37-2.47-3.83-.6-1.46-.91-3.03-.91-4.7,0-2.79.25-5.53.77-8.22.51-2.69,1.06-5.37,1.64-8.04.58-2.67,1.12-5.35,1.64-8.04.51-2.69.77-5.41.77-8.15,0-2.09-.22-4.13-.66-6.13-.44-2-.66-3.83-.66-5.5,0-2.27.78-3.99,2.33-5.15,1.55-1.16,3.38-1.74,5.47-1.74Z"/>
        <path d="m920.48,377.11c0-1.62.38-3.21,1.15-4.77.77-1.56,1.69-3.08,2.79-4.56,1.09-1.49,2.25-2.9,3.48-4.25,1.23-1.35,2.29-2.62,3.17-3.83,1.44-1.9,2.52-3.8,3.24-5.68.72-1.88,1.24-3.73,1.57-5.54.32-1.81.52-3.56.59-5.26.07-1.69.15-3.31.24-4.84.09-1.53.27-2.95.52-4.25.25-1.3.75-2.46,1.5-3.48.83-1.16,1.82-2.13,2.96-2.93,1.14-.79,2.37-1.44,3.69-1.95,1.32-.51,2.69-.88,4.11-1.11,1.42-.23,2.82-.35,4.21-.35,2.04,0,3.93.28,5.68.84,1.74.56,3.26,1.65,4.56,3.27.65.79,1.22,1.9,1.71,3.34.49,1.44.98,2.97,1.46,4.6.49,1.63,1,3.25,1.53,4.88.53,1.63,1.13,3.02,1.78,4.18.97,1.67,2.02,3.17,3.13,4.49,1.12,1.32,2.23,2.6,3.34,3.83,1.11,1.23,2.19,2.46,3.24,3.69,1.04,1.23,1.96,2.55,2.75,3.97.79,1.42,1.43,2.98,1.92,4.7.49,1.72.73,3.69.73,5.92,0,2-.26,3.85-.77,5.57-.51,1.72-1.29,3.18-2.33,4.39-1.04,1.21-2.37,2.16-3.97,2.86-1.6.7-3.47,1.04-5.61,1.04-2.69,0-4.95-.5-6.76-1.5-1.81-1-3.3-2.24-4.46-3.73-1.16-1.49-2.1-3.09-2.82-4.81-.72-1.72-1.37-3.32-1.95-4.81-.58-1.49-1.16-2.73-1.74-3.73-.58-1-1.31-1.5-2.19-1.5-.19,0-.38.02-.59.07-.21.05-.38.14-.52.28-1.25.93-2.11,2.16-2.58,3.69-.46,1.53-.79,3.17-.97,4.91-.19,1.74-.37,3.51-.56,5.29-.19,1.79-.67,3.39-1.46,4.81-.79,1.42-2,2.58-3.62,3.48-1.63.91-3.95,1.36-6.97,1.36-4.78,0-8.51-1.04-11.18-3.13s-4-5.25-4-9.47Zm27.44-26.82c0,.7.17,1.3.52,1.81.35.51.8.92,1.36,1.22.56.3,1.16.53,1.81.7.65.16,1.28.24,1.88.24.56,0,1.17-.07,1.85-.21.67-.14,1.3-.37,1.88-.7.58-.33,1.06-.72,1.43-1.18.37-.46.56-1.04.56-1.74,0-.65-.15-1.32-.45-2.02-.3-.7-.72-1.35-1.25-1.95-.53-.6-1.16-1.09-1.88-1.46-.72-.37-1.47-.56-2.26-.56-.84,0-1.58.19-2.23.56-.65.37-1.22.85-1.71,1.43-.49.58-.86,1.21-1.11,1.88-.26.67-.38,1.33-.38,1.98Z"/>
        <path d="m989.29,355.94c0-5.25.58-9.93,1.74-14.03,1.16-4.11,2.82-7.58,4.98-10.41,2.16-2.83,4.79-5,7.91-6.51,3.11-1.51,6.59-2.26,10.45-2.26,2.37,0,4.6.24,6.69.73,2.09.49,3.9,1.21,5.43,2.16,1.53.95,2.75,2.1,3.66,3.45.91,1.35,1.36,2.88,1.36,4.6,0,1.9-1.06,3.42-3.17,4.56-2.11,1.14-4.91,1.71-8.39,1.71-2.04,0-4,.16-5.89.49-1.88.33-3.54.95-4.98,1.88-1.44.93-2.59,2.22-3.45,3.87-.86,1.65-1.29,3.8-1.29,6.44,0,1.11.21,2.17.63,3.17.42,1,1.01,1.88,1.78,2.65s1.72,1.37,2.86,1.81c1.14.44,2.4.66,3.8.66,1.21,0,2.41-.16,3.62-.49,1.21-.32,2.3-.74,3.27-1.25.97-.51,1.76-1.09,2.37-1.74.6-.65.91-1.28.91-1.88,0-1.35-1.39-2.02-4.18-2.02-.79,0-1.61.05-2.47.14-.86.09-1.68.14-2.47.14-1.72,0-2.96-.31-3.73-.94-.77-.63-1.15-1.61-1.15-2.96s.34-2.41,1.01-3.2c.67-.79,1.52-1.37,2.54-1.74,1.02-.37,2.11-.6,3.27-.7,1.16-.09,2.25-.14,3.27-.14,3.53,0,6.6.19,9.23.56,2.62.37,4.82,1.17,6.58,2.4,1.76,1.23,3.09,2.98,3.97,5.26.88,2.28,1.32,5.34,1.32,9.19s-.67,7.67-2.02,11.18c-1.35,3.51-3.23,6.58-5.64,9.23-2.42,2.65-5.28,4.74-8.6,6.27-3.32,1.53-6.98,2.3-10.97,2.3s-7.43-.85-10.45-2.54c-3.02-1.7-5.55-4.06-7.59-7.1-2.04-3.04-3.59-6.69-4.63-10.94-1.04-4.25-1.57-8.9-1.57-13.96Z"/>
        <path d="m1043.9,377.11c0-1.62.38-3.21,1.15-4.77.77-1.56,1.69-3.08,2.79-4.56,1.09-1.49,2.25-2.9,3.48-4.25,1.23-1.35,2.29-2.62,3.17-3.83,1.44-1.9,2.52-3.8,3.24-5.68.72-1.88,1.24-3.73,1.57-5.54.32-1.81.52-3.56.59-5.26.07-1.69.15-3.31.24-4.84.09-1.53.27-2.95.52-4.25.25-1.3.75-2.46,1.5-3.48.83-1.16,1.82-2.13,2.96-2.93,1.14-.79,2.37-1.44,3.69-1.95,1.32-.51,2.69-.88,4.11-1.11,1.42-.23,2.82-.35,4.21-.35,2.04,0,3.93.28,5.68.84,1.74.56,3.26,1.65,4.56,3.27.65.79,1.22,1.9,1.71,3.34.49,1.44.98,2.97,1.46,4.6.49,1.63,1,3.25,1.53,4.88.53,1.63,1.13,3.02,1.78,4.18.97,1.67,2.02,3.17,3.13,4.49,1.12,1.32,2.23,2.6,3.34,3.83,1.11,1.23,2.19,2.46,3.24,3.69,1.04,1.23,1.96,2.55,2.75,3.97.79,1.42,1.43,2.98,1.92,4.7.49,1.72.73,3.69.73,5.92,0,2-.26,3.85-.77,5.57-.51,1.72-1.29,3.18-2.33,4.39-1.04,1.21-2.37,2.16-3.97,2.86-1.6.7-3.47,1.04-5.61,1.04-2.69,0-4.95-.5-6.76-1.5-1.81-1-3.3-2.24-4.46-3.73-1.16-1.49-2.1-3.09-2.82-4.81-.72-1.72-1.37-3.32-1.95-4.81-.58-1.49-1.16-2.73-1.74-3.73-.58-1-1.31-1.5-2.19-1.5-.19,0-.38.02-.59.07-.21.05-.38.14-.52.28-1.25.93-2.11,2.16-2.58,3.69-.46,1.53-.79,3.17-.97,4.91-.19,1.74-.37,3.51-.56,5.29-.19,1.79-.67,3.39-1.46,4.81-.79,1.42-2,2.58-3.62,3.48-1.63.91-3.95,1.36-6.97,1.36-4.78,0-8.51-1.04-11.18-3.13s-4-5.25-4-9.47Zm27.44-26.82c0,.7.17,1.3.52,1.81.35.51.8.92,1.36,1.22.56.3,1.16.53,1.81.7.65.16,1.28.24,1.88.24.56,0,1.17-.07,1.85-.21.67-.14,1.3-.37,1.88-.7.58-.33,1.06-.72,1.43-1.18.37-.46.56-1.04.56-1.74,0-.65-.15-1.32-.45-2.02-.3-.7-.72-1.35-1.25-1.95-.53-.6-1.16-1.09-1.88-1.46-.72-.37-1.47-.56-2.26-.56-.84,0-1.58.19-2.23.56-.65.37-1.22.85-1.71,1.43-.49.58-.86,1.21-1.11,1.88-.26.67-.38,1.33-.38,1.98Z"/>
      </g>
    </g>
  </g>
</svg>